<mxfile host="app.diagrams.net" modified="2023-04-21T09:19:52.566Z" agent="Mozilla/5.0 (Windows NT 10.0; Win64; x64) AppleWebKit/537.36 (KHTML, like Gecko) Chrome/112.0.0.0 Safari/537.36 Edg/112.0.1722.48" etag="vD49GvlGzzPXpUkWeIO0" version="21.2.1" type="github">
  <diagram name="Page-1" id="XF9lzYVtG-ylk2gCfyFS">
    <mxGraphModel dx="1377" dy="788" grid="1" gridSize="10" guides="1" tooltips="1" connect="1" arrows="1" fold="1" page="1" pageScale="1" pageWidth="850" pageHeight="1100" math="0" shadow="0">
      <root>
        <mxCell id="0" />
        <mxCell id="1" parent="0" />
        <object label="Vertical Container" id="-GALevywnPLb_dIaLDLB-3">
          <mxCell style="swimlane;whiteSpace=wrap;html=1;" vertex="1" parent="1">
            <mxGeometry x="320" y="310" width="200" height="200" as="geometry" />
          </mxCell>
        </object>
        <mxCell id="-GALevywnPLb_dIaLDLB-4" value="Interface Car" style="text;html=1;align=center;verticalAlign=middle;resizable=0;points=[];autosize=1;strokeColor=none;fillColor=none;" vertex="1" parent="-GALevywnPLb_dIaLDLB-3">
          <mxGeometry x="50" y="58" width="90" height="30" as="geometry" />
        </mxCell>
      </root>
    </mxGraphModel>
  </diagram>
</mxfile>
